<svg xmlns="http://www.w3.org/2000/svg" xmlns:xlink="http://www.w3.org/1999/xlink" fill="none" version="1.1" width="1025" height="1024" viewBox="0 0 1025 1024"><defs><linearGradient x1="0" y1="0" x2="1" y2="1" id="master_svg0_987_14437"><stop offset="0%" stop-color="#A100FF" stop-opacity="1"/><stop offset="100%" stop-color="#00EEFF" stop-opacity="1"/></linearGradient><mask id="master_svg1_319_24234"><g style="mix-blend-mode:passthrough"><path d="M1026,318.915C1026,306.759,1026,294.602,1025.9299999999998,282.444C1025.87,272.203,1025.75,261.964,1025.47,251.728C1024.87,229.417,1023.56,206.916,1019.59,184.854C1015.56,162.474,1008.99,141.645,998.637,121.31C988.456,101.323,975.158,83.0344,959.291,67.1786C943.428,51.3228,925.134,38.0333,905.14,27.8592C884.785,17.5011,863.933,10.9322,841.528,6.90949C819.464,2.94772,796.956,1.63417,774.646,1.03145C764.402,0.754327,754.158,0.637512,743.912,0.574134C731.749,0.499571,719.585,0.505785,707.421,0.505785L566.19,0L460.56,0L321.827,0.505785C309.64,0.505785,297.453,0.499571,285.266,0.574134C274.998,0.637512,264.736,0.754327,254.473,1.03145C232.11,1.63417,209.551,2.94896,187.435,6.9157C165,10.9371,144.117,17.5036,123.735,27.8542C103.698,38.0295,85.3647,51.3204,69.4679,67.1786C53.5737,83.0332,40.2506,101.318,30.0517,121.301C19.6676,141.646,13.0837,162.487,9.049890000000001,184.88C5.07819,206.933,3.7621599999999997,229.427,3.1569599999999998,251.728C2.881081,261.965,2.761781,272.204,2.699645,282.444C2.625083,294.603,2,309.705,2,321.863L2.00372813,458.673L2,565.435L2.631296,705.152C2.631296,717.326,2.626325,729.499,2.699645,741.673C2.761781,751.928,2.881081,762.18,3.15821,772.431C3.7621599999999997,794.77,5.08068,817.304,9.0561,839.396C13.0887,861.806,19.6713,882.665,30.0467,903.026C40.2469,923.041,53.5724,941.353,69.4679,957.231C85.3634,973.11,103.692,986.417,123.725,996.606C144.12,1006.98,165.012,1013.55,187.461,1017.58C209.567,1021.55,232.119,1022.87,254.473,1023.47C264.736,1023.75,275,1023.86,285.267,1023.93C297.454,1024,309.64,1024,321.827,1024L461.814,1024L567.706,1024L707.421,1023.99C719.585,1023.99,731.749,1024,743.912,1023.93C754.158,1023.86,764.402,1023.75,774.646,1023.47C796.965,1022.87,819.48,1021.55,841.555,1017.58C863.946,1013.55,884.787,1006.97,905.132,996.609C925.129,986.422,943.427,973.112,959.291,957.231C975.156,941.356,988.453,923.046,998.633,903.034C1008.99,882.664,1015.57,861.795,1019.59,839.37C1023.56,817.287,1024.87,794.762,1025.47,772.431C1025.75,762.179,1025.87,751.926,1025.9299999999998,741.673C1026.01,729.499,1026,717.326,1026,705.152C1026,705.152,1025.99,567.902,1025.99,565.435L1025.99,458.561C1025.99,456.74,1026,318.915,1026,318.915L1026,318.915Z" fill-rule="evenodd" fill="#FFFFFF" fill-opacity="1"/></g></mask><filter id="master_svg2_319_24236/1_002621" filterUnits="objectBoundingBox" color-interpolation-filters="sRGB" x="-20" y="-16" width="329.6882019042969" height="758.291259765625"><feFlood flood-opacity="0" result="BackgroundImageFix"/><feColorMatrix in="SourceAlpha" type="matrix" values="0 0 0 0 0 0 0 0 0 0 0 0 0 0 0 0 0 0 127 0"/><feOffset dy="4" dx="0"/><feGaussianBlur stdDeviation="5"/><feColorMatrix type="matrix" values="0 0 0 0 0 0 0 0 0 0 0 0 0 0 0 0 0 0 0.3019607961177826 0"/><feBlend mode="normal" in2="BackgroundImageFix" result="effect1_dropShadow"/><feBlend mode="normal" in="SourceGraphic" in2="effect1_dropShadow" result="shape"/></filter><linearGradient x1="0" y1="0" x2="1" y2="1" id="master_svg3_1_87162"><stop offset="0%" stop-color="#FFFFFF" stop-opacity="0.3499999940395355"/><stop offset="72.85714149475098%" stop-color="#FFFFFF" stop-opacity="1"/></linearGradient><filter id="master_svg4_319_24236/1_67713" filterUnits="objectBoundingBox" color-interpolation-filters="sRGB" x="-20" y="-16" width="329.6882019042969" height="758.291259765625"><feFlood flood-opacity="0" result="BackgroundImageFix"/><feColorMatrix in="SourceAlpha" type="matrix" values="0 0 0 0 0 0 0 0 0 0 0 0 0 0 0 0 0 0 127 0"/><feOffset dy="4" dx="0"/><feGaussianBlur stdDeviation="5"/><feColorMatrix type="matrix" values="0 0 0 0 0 0 0 0 0 0 0 0 0 0 0 0 0 0 0.3019607961177826 0"/><feBlend mode="normal" in2="BackgroundImageFix" result="effect1_dropShadow"/><feBlend mode="normal" in="SourceGraphic" in2="effect1_dropShadow" result="shape"/></filter><linearGradient x1="0" y1="0" x2="1" y2="1" id="master_svg5_1_87162"><stop offset="0%" stop-color="#FFFFFF" stop-opacity="0.3499999940395355"/><stop offset="72.85714149475098%" stop-color="#FFFFFF" stop-opacity="1"/></linearGradient></defs><g style="mix-blend-mode:passthrough"><g style="mix-blend-mode:passthrough"><g style="mix-blend-mode:passthrough"><g style="mix-blend-mode:passthrough"><path d="M1025,318.915C1025,306.759,1025,294.602,1024.9299999999998,282.444C1024.87,272.203,1024.75,261.964,1024.47,251.728C1023.87,229.417,1022.56,206.916,1018.59,184.854C1014.56,162.474,1007.99,141.645,997.637,121.31C987.456,101.323,974.158,83.0344,958.291,67.1786C942.428,51.3228,924.134,38.0333,904.14,27.8592C883.785,17.5011,862.933,10.9322,840.528,6.90949C818.464,2.94772,795.956,1.63417,773.646,1.03145C763.402,0.754327,753.158,0.637512,742.912,0.574134C730.749,0.499571,718.585,0.505785,706.421,0.505785L565.19,0L459.56,0L320.827,0.505785C308.64,0.505785,296.453,0.499571,284.266,0.574134C273.998,0.637512,263.736,0.754327,253.473,1.03145C231.11,1.63417,208.551,2.94896,186.435,6.9157C164,10.9371,143.117,17.5036,122.735,27.8542C102.698,38.0295,84.3647,51.3204,68.4679,67.1786C52.5737,83.0332,39.2506,101.318,29.0517,121.301C18.6676,141.646,12.0837,162.487,8.049890000000001,184.88C4.07819,206.933,2.7621599999999997,229.427,2.1569599999999998,251.728C1.881081,261.965,1.761781,272.204,1.6996449999999999,282.444C1.625083,294.603,1,309.705,1,321.863L1.00372813,458.673L1,565.435L1.6312959999999999,705.152C1.6312959999999999,717.326,1.626325,729.499,1.6996449999999999,741.673C1.761781,751.928,1.881081,762.18,2.15821,772.431C2.7621599999999997,794.77,4.08068,817.304,8.0561,839.396C12.0887,861.806,18.6713,882.665,29.0467,903.026C39.2469,923.041,52.5724,941.353,68.4679,957.231C84.3634,973.11,102.692,986.417,122.725,996.606C143.12,1006.98,164.012,1013.55,186.461,1017.58C208.567,1021.55,231.119,1022.87,253.473,1023.47C263.736,1023.75,274,1023.86,284.267,1023.93C296.454,1024,308.64,1024,320.827,1024L460.814,1024L566.706,1024L706.421,1023.99C718.585,1023.99,730.749,1024,742.912,1023.93C753.158,1023.86,763.402,1023.75,773.646,1023.47C795.965,1022.87,818.48,1021.55,840.555,1017.58C862.946,1013.55,883.787,1006.97,904.132,996.609C924.129,986.422,942.427,973.112,958.291,957.231C974.156,941.356,987.453,923.046,997.633,903.034C1007.99,882.664,1014.57,861.795,1018.59,839.37C1022.56,817.287,1023.87,794.762,1024.47,772.431C1024.75,762.179,1024.87,751.926,1024.9299999999998,741.673C1025.01,729.499,1025,717.326,1025,705.152C1025,705.152,1024.99,567.902,1024.99,565.435L1024.99,458.561C1024.99,456.74,1025,318.915,1025,318.915L1025,318.915Z" fill-rule="evenodd" fill="url(#master_svg0_987_14437)" fill-opacity="1"/></g><g style="mix-blend-mode:passthrough" mask="url(#master_svg1_319_24234)"><g style="mix-blend-mode:passthrough"></g><g style="mix-blend-mode:passthrough"><g style="mix-blend-mode:passthrough" filter="url(#master_svg2_319_24236/1_002621)"><path d="M542.4480133056641,673.0293701171875C542.4480133056641,683.4943701171875,547.9018833056641,693.2033701171875,556.8393133056641,698.6483701171875L785.5810133056641,838.0083701171875C805.5720133056641,850.1883701171874,831.189013305664,835.7983701171875,831.189013305664,812.3883701171875L831.189013305664,207.0703701171875C831.189013305664,183.4885701171875,805.2340133056641,169.1264701171875,785.2540133056641,181.6524701171875L556.512813305664,325.0573701171875C547.7615033056641,330.54337011718746,542.4480133056641,340.14637011718753,542.4480133056641,350.4743701171875L542.4480133056641,673.0293701171875Z" fill="url(#master_svg3_1_87162)" fill-opacity="1"/></g><g style="mix-blend-mode:passthrough" transform="matrix(-1,0,0,1,968.6186828613281,0)" filter="url(#master_svg4_319_24236/1_67713)"><path d="M484.30934143066406,673.0293701171875C484.30934143066406,683.4943701171875,489.76321143066406,693.2033701171875,498.70064143066406,698.6483701171875L727.4423414306641,838.0083701171875C747.4333414306641,850.1883701171874,773.050341430664,835.7983701171875,773.050341430664,812.3883701171875L773.050341430664,207.0703701171875C773.050341430664,183.4885701171875,747.0953414306641,169.1264701171875,727.1153414306641,181.6524701171875L498.37414143066405,325.0573701171875C489.62283143066406,330.54337011718746,484.30934143066406,340.14637011718753,484.30934143066406,350.4743701171875L484.30934143066406,673.0293701171875Z" fill="url(#master_svg5_1_87162)" fill-opacity="1"/></g></g></g></g></g></g></svg>