<svg viewBox="0 0 1024 1024" xmlns="http://www.w3.org/2000/svg"><defs><style>.cls-1{fill:none;}.cls-2{fill:#fff;}.cls-3{fill:#101129;}.cls-4{fill:#80adff;}.cls-5{fill:#81e6c1;}.cls-6{fill:#ffdc8a;}.cls-7{fill:#ccdeff;}</style></defs><g id="图层_2"><g id="缺省页"><g id="网络"><rect height="1024" width="1024" class="cls-1"></rect><path d="M804.28,425.89c-35.8,27.47-82.31,49.87-134,63.11-141.23,36.2-274.87-9.1-298.47-101.18-19.18-74.82,39.28-156.41,138-204.21" class="cls-2"></path><path d="M573.7,505.52c-34.84,0-68.12-5.08-98-15.21C418,470.75,379.74,434.7,368,388.81c-19.22-75,37.08-158.9,140.11-208.8a4,4,0,1,1,3.48,7.2c-99.5,48.19-154.09,128.41-135.84,199.61,23,89.81,154.73,133.9,293.61,98.31,50.27-12.89,96.1-34.47,132.51-62.42a4,4,0,1,1,4.87,6.35c-37.26,28.59-84.08,50.66-135.39,63.82A395,395,0,0,1,573.7,505.52Z" class="cls-3"></path><ellipse transform="matrix(0.6, -0.8, 0.8, 0.6, 16.29, 646.35)" ry="192.33" rx="68.28" cy="306.92" cx="653.39" class="cls-4"></ellipse><path d="M774.93,438.4c-39.71,0-102.24-26.79-164.83-73.6-88.16-65.93-138.21-143-113.93-175.47,12-16.07,39.86-18.32,78.42-6.35,37.24,11.56,80.6,35,122.1,66.05C784.85,315,834.9,392,810.62,424.5,803.58,433.92,791.16,438.4,774.93,438.4Zm-243.18-255c-13.76,0-23.84,3.59-29.18,10.72C481.71,222,533.14,297.25,614.89,358.4s168.45,89.22,189.32,61.31h0c20.87-27.9-30.56-103.13-112.31-164.27-40.79-30.51-83.29-53.53-119.68-64.82C556.68,185.79,543,183.4,531.75,183.4ZM807.42,422.11h0Z" class="cls-3"></path><path d="M650.37,319.48,598.83,351q6.67,5.33,13.67,10.57,8.25,6.16,16.51,11.87L662,333Z" class="cls-5"></path><path d="M629,377.47a4,4,0,0,1-2.27-.71c-5.58-3.86-11.18-7.88-16.63-12-4.57-3.41-9.2-7-13.77-10.65a4,4,0,0,1,.41-6.53l51.54-31.55a4,4,0,0,1,5.12.8L665,330.39a4,4,0,0,1,.07,5.14l-33,40.47A4,4,0,0,1,629,377.47Zm-23.19-26c3,2.38,6.07,4.7,9.08,7,4.39,3.27,8.87,6.52,13.36,9.67l28.53-35-7.23-8.4Z" class="cls-3"></path><path d="M296,650l232-.15L388.73,546.17a31.15,31.15,0,0,0-46.45,11Z" class="cls-2"></path><path d="M296,654a4,4,0,0,1-3.58-5.79l46.28-92.82A35.15,35.15,0,0,1,391.11,543L530.39,646.64a4,4,0,0,1-2.39,7.21L296,654Zm74.14-110a27.39,27.39,0,0,0-6.34.75A27,27,0,0,0,345.86,559l-43.39,87,213.47-.14-129.6-96.48A27.1,27.1,0,0,0,370.14,544Z" class="cls-3"></path><path d="M444.71,472.73l-68,68a31.05,31.05,0,0,1,12,5.46l31.33,23.33,77.07-77.07A234.59,234.59,0,0,1,444.71,472.73Z" class="cls-2"></path><path d="M420.45,574.77l-34.11-25.39a26.88,26.88,0,0,0-10.46-4.76l-7.17-1.55L444,467.82l2.61,1.37a230.06,230.06,0,0,0,51.53,19.36l6.84,1.71Zm-36.28-35.85a35.28,35.28,0,0,1,6.94,4l28.57,21.27,69.71-69.71a235.89,235.89,0,0,1-43.92-16.89Z" class="cls-3"></path><path d="M240,650H784a48,48,0,0,1,48,48v70a0,0,0,0,1,0,0H192a0,0,0,0,1,0,0V698A48,48,0,0,1,240,650Z" class="cls-2"></path><path d="M832,772H192a4,4,0,0,1-4-4V698a52.06,52.06,0,0,1,52-52H784a52.06,52.06,0,0,1,52,52v70A4,4,0,0,1,832,772Zm-636-8H828V698a44.05,44.05,0,0,0-44-44H240a44.05,44.05,0,0,0-44,44Z" class="cls-3"></path><path d="M128,768H896a64,64,0,0,1,64,64v48a16,16,0,0,1-16,16H80a16,16,0,0,1-16-16V832A64,64,0,0,1,128,768Z" class="cls-2"></path><path d="M944,900H80a20,20,0,0,1-20-20V832a68.07,68.07,0,0,1,68-68H896a68.07,68.07,0,0,1,68,68v48A20,20,0,0,1,944,900ZM128,772a60.07,60.07,0,0,0-60,60v48a12,12,0,0,0,12,12H944a12,12,0,0,0,12-12V832a60.07,60.07,0,0,0-60-60Z" class="cls-3"></path><circle r="32" cy="832" cx="864" class="cls-6"></circle><path d="M864,868a36,36,0,1,1,36-36A36,36,0,0,1,864,868Zm0-64a28,28,0,1,0,28,28A28,28,0,0,0,864,804Z" class="cls-3"></path><circle r="32" cy="832" cx="736" class="cls-5"></circle><path d="M736,868a36,36,0,1,1,36-36A36,36,0,0,1,736,868Zm0-64a28,28,0,1,0,28,28A28,28,0,0,0,736,804Z" class="cls-3"></path><path d="M360.72,892a136,136,0,0,0-257.44,0Z" class="cls-4"></path><circle r="17.5" cy="317.5" cx="665.5" class="cls-5"></circle><path d="M665.5,339A21.5,21.5,0,1,1,687,317.5,21.52,21.52,0,0,1,665.5,339Zm0-35A13.5,13.5,0,1,0,679,317.5,13.52,13.52,0,0,0,665.5,304Z" class="cls-3"></path><path d="M332,646l131.82-.09L388.73,599a24,24,0,0,0-33.3,8Z" class="cls-6"></path><path d="M930,573.1a27.33,27.33,0,0,0,22.7-42.6,27.13,27.13,0,0,0-15.24-4.65c-.62,0-1.27,0-2,.08a2.47,2.47,0,0,1-2.44-1.43,25.1,25.1,0,0,0-4-6.09l-1,.06a2.49,2.49,0,0,1-2.44-1.43,23.5,23.5,0,0,0-2-3.4c-6.8-4.82-16-7.69-25.89-7.69-20.57,0-37.31,12.27-37.31,27.36a2.48,2.48,0,0,1-2.49,2.48c-15.08,0-27.36,10.05-27.36,22.39a19,19,0,0,0,2.95,10.09,31.24,31.24,0,0,0,17,4.83Z" class="cls-4"></path><path d="M930,579.59H920a4,4,0,0,1,0-8h10a25.85,25.85,0,0,0,0-51.69c-.58,0-1.19,0-1.94.08a4,4,0,0,1-3.92-2.3C919.18,507.1,905.54,500,890.17,500c-19.73,0-35.79,11.59-35.79,25.85a4,4,0,0,1-4,4c-14.25,0-25.84,9.36-25.84,20.87s11.59,20.87,25.84,20.87h49.74a4,4,0,0,1,0,8H850.38c-18.66,0-33.84-13-33.84-28.87,0-14.85,13.2-27.12,30.12-28.7,2.47-16.87,21-30,43.51-30,17.29,0,32.94,7.9,39.93,19.9a33.85,33.85,0,0,1-.13,67.69Z" class="cls-3"></path><path d="M278.86,220.57a37.7,37.7,0,0,0,31.3-58.73,37.48,37.48,0,0,0-21-6.41c-.85,0-1.74,0-2.82.12a3.42,3.42,0,0,1-3.36-2,34.8,34.8,0,0,0-5.58-8.4c-.42,0-.86,0-1.35.08a3.42,3.42,0,0,1-3.36-2A33.71,33.71,0,0,0,270,138.6C260.6,132,247.91,128,234.29,128c-28.36,0-51.43,16.92-51.43,37.71a3.43,3.43,0,0,1-3.43,3.43c-20.8,0-37.72,13.85-37.72,30.86a26.29,26.29,0,0,0,4.07,13.91,43,43,0,0,0,23.36,6.66Z" class="cls-4"></path><path d="M278.86,228H265.14a4,4,0,0,1,0-8h13.72a37.15,37.15,0,0,0,0-74.29c-.83,0-1.72,0-2.78.12a4,4,0,0,1-3.92-2.3c-7.05-15.1-26.4-25.24-48.16-25.24-28,0-50.86,16.66-50.86,37.14a4,4,0,0,1-4,4C148.66,159.43,132,173,132,189.71S148.66,220,169.14,220h68.57a4,4,0,1,1,0,8H169.14C144.25,228,124,210.83,124,189.71c0-20,18.23-36.51,41.36-38.15,2.56-23.09,27.88-41.27,58.64-41.27,23.67,0,45,10.92,54.17,27.43h.69a45.15,45.15,0,0,1,0,90.29Z" class="cls-3"></path><path d="M275.2,337.66l5.12,20.75a6.44,6.44,0,0,0,4.71,4.71l20.74,5.12a1.61,1.61,0,0,1,0,3.13L285,376.48a6.44,6.44,0,0,0-4.71,4.71l-5.12,20.75a1.61,1.61,0,0,1-3.13,0L267,381.19a6.44,6.44,0,0,0-4.71-4.71l-20.75-5.11a1.61,1.61,0,0,1,0-3.13l20.75-5.12a6.44,6.44,0,0,0,4.71-4.71l5.11-20.75A1.61,1.61,0,0,1,275.2,337.66Z" class="cls-7"></path><path d="M867.2,190.66l5.12,20.75a6.44,6.44,0,0,0,4.71,4.71l20.74,5.12a1.61,1.61,0,0,1,0,3.13L877,229.48a6.44,6.44,0,0,0-4.71,4.71l-5.12,20.75a1.61,1.61,0,0,1-3.13,0L859,234.19a6.44,6.44,0,0,0-4.71-4.71l-20.75-5.11a1.61,1.61,0,0,1,0-3.13l20.75-5.12a6.44,6.44,0,0,0,4.71-4.71l5.11-20.75A1.61,1.61,0,0,1,867.2,190.66Z" class="cls-7"></path><path d="M152.47,465.41l5.87,23.79a7.38,7.38,0,0,0,5.41,5.41l23.8,5.87a1.85,1.85,0,0,1,0,3.59l-23.8,5.87a7.38,7.38,0,0,0-5.41,5.41l-5.87,23.79a1.85,1.85,0,0,1-3.59,0L143,515.35a7.38,7.38,0,0,0-5.41-5.41l-23.8-5.87a1.85,1.85,0,0,1,0-3.59l23.8-5.87A7.38,7.38,0,0,0,143,489.2l5.86-23.79A1.85,1.85,0,0,1,152.47,465.41Z" class="cls-7"></path><path d="M480,692H448a4,4,0,0,1,0-8h32a4,4,0,0,1,0,8Z" class="cls-3"></path><path d="M256,740a4,4,0,0,1-4-4V720a36,36,0,0,1,36-36H416a4,4,0,0,1,0,8H288a28,28,0,0,0-28,28v16A4,4,0,0,1,256,740Z" class="cls-3"></path></g></g></g></svg>